HIERARCHY
ROOT Hips
{
	OFFSET 0.000000 8.830580 0.000000
	CHANNELS 6 Xposition Yposition Zposition Zrotation Yrotation Xrotation 
	JOINT Spine
	{
		OFFSET 0.000000 0.010000 0.000000
		CHANNELS 3 Zrotation Yrotation Xrotation
		JOINT Spine1
		{
			OFFSET 0.000000 2.459130 0.000000
			CHANNELS 3 Zrotation Yrotation Xrotation
			JOINT Neck
			{
				OFFSET 0.000000 2.484630 0.000000
				CHANNELS 3 Zrotation Yrotation Xrotation
				JOINT Head_virtual
				{
					OFFSET 0.000000 0.000000 0.000000
					CHANNELS 3 Zrotation Yrotation Xrotation
					JOINT Head
					{
						OFFSET 0.000000 0.927525 0.000000
						CHANNELS 3 Zrotation Yrotation Xrotation
						End Site
						{
							OFFSET 0.000000 0.000000 0.000000
						}
					}
				}
				JOINT LeftUpArm_virtual
				{
					OFFSET 0.000000 0.000000 0.000000
					CHANNELS 3 Zrotation Yrotation Xrotation
					JOINT LeftUpArm
					{
						OFFSET 1.248820 0.000000 0.000000
						CHANNELS 3 Zrotation Yrotation Xrotation
						JOINT LeftForeArm
						{
							OFFSET 2.597580 0.000000 0.000000
							CHANNELS 3 Zrotation Yrotation Xrotation
							JOINT LeftHand
							{
								OFFSET 2.455420 0.000000 0.000000
								CHANNELS 3 Zrotation Yrotation Xrotation
								End Site
								{
									OFFSET 0.000000 0.000000 0.000000
								}
							}
						}
					}
				}
				JOINT RightUpArm_virtual
				{
					OFFSET -0.000000 -0.000000 -0.000000
					CHANNELS 3 Zrotation Yrotation Xrotation
					JOINT RightUpArm
					{
						OFFSET -1.248820 -0.000000 -0.000000
						CHANNELS 3 Zrotation Yrotation Xrotation
						JOINT RightForeArm
						{
							OFFSET -2.597580 -0.000000 -0.000000
							CHANNELS 3 Zrotation Yrotation Xrotation
							JOINT RightHand
							{
								OFFSET -2.455420 -0.000000 -0.000000
								CHANNELS 3 Zrotation Yrotation Xrotation
								End Site
								{
									OFFSET 0.000000 0.000000 0.000000
								}
							}
						}
					}
				}
			}
		}
	}
	JOINT LeftUpLeg
	{
		OFFSET 1.271939 0.000000 0.000000
		CHANNELS 3 Zrotation Yrotation Xrotation
		JOINT LeftLowLeg
		{
			OFFSET 0.000000 -4.342910 0.000000
			CHANNELS 3 Zrotation Yrotation Xrotation
			JOINT LeftFoot
			{
				OFFSET 0.000000 -4.487670 0.000000
				CHANNELS 3 Zrotation Yrotation Xrotation
				JOINT LeftToeBase
				{
					OFFSET 0.000000 0.000000 1.515070
					CHANNELS 3 Zrotation Yrotation Xrotation
					End Site
					{
						OFFSET 0.000000 0.000000 0.000000
					}
				}
			}
		}
	}
	JOINT RightUpLeg
	{
		OFFSET -1.271939 0.000000 0.000000
		CHANNELS 3 Zrotation Yrotation Xrotation
		JOINT RightLowLeg
		{
			OFFSET 0.000000 -4.342910 0.000000
			CHANNELS 3 Zrotation Yrotation Xrotation
			JOINT RightFoot
			{
				OFFSET 0.000000 -4.487670 0.000000
				CHANNELS 3 Zrotation Yrotation Xrotation
				JOINT RightToeBase
				{
					OFFSET 0.000000 0.000000 1.515070
					CHANNELS 3 Zrotation Yrotation Xrotation
					End Site
					{
						OFFSET 0.000000 0.000000 0.000000
					}
				}
			}
		}
	}
}
MOTION
Frames: 8
Frame Time: 0.041667
-14.764185 8.674098 35.133491 -166.277516 -1.829918 179.429628 12.366517 -2.765286 -23.708596 2.735291 -2.341670 15.898927 0.000000 0.000000 0.000000 8.513602 17.051326 10.921533 -20.720262 -6.213917 -77.142095 -15.129900 -6.818170 6.379280 -60.516102 -18.596800 2.838013 180.000000 -39.154999 -180.000000 -26.558001 -2.710620 -22.511101 15.059500 -1.274420 -1.904890 23.768200 -25.783800 67.929703 0.000000 88.293800 0.000000 -7.242750 -27.291201 -39.206501 -8.303120 3.075489 -14.634949 0.000000 0.000000 44.367699 9.205157 12.959972 3.990406 0.000000 0.000000 -31.487900 24.499393 27.319837 4.209426 0.000000 0.000000 4.801490 4.721260 -16.782730 5.264391 0.000000 0.000000 -16.200680 
-14.778266 8.678176 35.144969 -166.318624 -1.647285 179.422386 12.391563 -2.892806 -23.749120 2.873021 -2.428029 15.726184 0.000000 0.000000 0.000000 8.717421 17.349630 11.557639 -21.021683 -5.924440 -77.234984 -15.393200 -6.248310 6.941710 -58.584099 -18.478701 1.463013 180.000000 -40.936005 -180.000000 -28.067101 -2.741560 -20.728901 14.889600 -1.613050 -2.276820 23.389099 -25.618700 66.712898 0.000000 87.918800 0.000000 -4.749460 -26.414200 -37.428200 -8.460586 3.116562 -14.862888 0.000000 0.000000 44.561798 9.106831 13.033160 4.547071 0.000000 0.000000 -31.915001 24.339204 27.235694 4.151566 0.000000 0.000000 4.853530 4.769128 -16.561721 5.315196 0.000000 0.000000 -16.219080 
-14.794663 8.683310 35.159486 -166.355341 -1.543211 179.493379 12.467279 -2.979664 -23.790544 2.967824 -2.517934 15.487528 0.000000 0.000000 0.000000 8.787556 17.683533 12.032902 -21.228807 -5.727714 -77.300424 -15.545000 -5.953700 7.651760 -56.722000 -18.118299 0.057007 -180.000000 -42.431000 180.000000 -28.826000 -1.408290 -17.988100 14.772000 -1.882840 -2.565180 23.036600 -25.655800 65.117996 0.000000 87.632202 0.000000 -2.583710 -25.484800 -34.848301 -8.611722 3.025794 -15.459090 0.000000 0.000000 45.202499 8.568568 12.897287 5.275248 0.000000 0.000000 -32.304399 24.129628 27.351297 3.952493 0.000000 0.000000 4.957740 4.903927 -16.519974 5.342591 0.000000 0.000000 -16.228780 
-14.811603 8.688349 35.176734 -166.425598 -1.495394 179.474259 12.497914 -3.077426 -23.839205 2.949293 -2.618399 15.612415 0.000000 0.000000 0.000000 8.822937 17.997122 11.985930 -21.475120 -5.344617 -77.358848 -15.109200 -5.774050 6.503200 -55.912300 -16.356400 -0.243988 180.000000 -43.940994 -180.000000 -31.096100 0.229986 -15.910800 14.757900 -2.420890 -2.853880 22.707701 -25.226400 63.426201 0.000000 87.446503 0.000000 -0.654778 -24.701000 -32.397800 -8.764325 2.831732 -16.321687 0.000000 0.000000 46.396500 7.520883 12.518607 6.199229 0.000000 0.000000 -32.617100 23.936188 27.457500 3.832240 0.000000 0.000000 5.043990 4.939467 -16.621926 5.376466 0.000000 0.000000 -16.244220 
-14.826985 8.694635 35.197224 -166.536808 -1.582817 179.470212 12.435826 -3.241743 -23.789711 3.075155 -2.690753 15.488905 0.000000 0.000000 0.000000 8.863586 18.206207 12.232040 -21.838515 -5.226542 -77.536288 -15.260400 -5.321620 7.205300 -54.109501 -16.360399 -1.359009 180.000000 -45.537994 -180.000000 -33.010700 2.539380 -13.572800 14.834300 -2.821310 -3.026730 22.337200 -25.083799 61.273998 0.000000 87.371201 0.000000 2.074610 -24.173201 -30.897200 -8.908125 2.432524 -17.528506 0.000000 0.000000 48.060600 5.915291 11.962415 7.237843 0.000000 0.000000 -32.238400 23.744963 28.120744 3.607047 0.000000 0.000000 5.227020 5.128836 -17.309393 5.339700 0.000000 0.000000 -16.357840 
-14.842932 8.699433 35.221169 -166.645507 -1.657911 179.370651 12.368745 -3.323259 -23.645980 3.190338 -2.725351 15.544025 0.000000 0.000000 0.000000 8.791939 18.418001 12.085691 -22.217588 -5.031873 -77.620141 -15.167600 -4.985530 6.999460 -52.825500 -15.615400 -1.816010 180.000000 -46.854996 -180.000000 -34.996201 6.112940 -10.633100 14.865700 -3.308640 -3.219910 22.159800 -24.831301 59.111301 0.000000 87.251297 0.000000 4.687020 -24.111799 -28.595600 -9.045543 1.996664 -18.916021 0.000000 0.000000 50.085400 4.095938 11.509124 8.165266 0.000000 0.000000 -30.653100 23.664617 29.207908 3.557551 0.000000 0.000000 5.279670 5.230272 -18.549139 5.314158 0.000000 0.000000 -16.504330 
-14.857299 8.703382 35.247357 -166.686301 -1.626116 179.168985 12.366330 -3.284742 -23.359749 3.321615 -2.744085 15.700166 0.000000 0.000000 0.000000 8.477010 18.763321 11.665954 -22.463050 -4.939715 -77.652789 -15.046900 -4.681060 6.810920 -51.576500 -14.875900 -2.260986 -180.000000 -48.024994 -180.000000 -36.606899 9.942660 -6.282540 14.874400 -3.642640 -3.316360 22.152201 -24.748400 56.838600 0.000000 87.188400 0.000000 5.469880 -23.838699 -26.212700 -9.088414 1.733275 -20.362530 0.000000 0.000000 52.235500 0.906633 11.109224 8.182620 0.000000 0.000000 -27.621000 23.635457 29.791873 3.574152 0.000000 0.000000 5.367480 5.408390 -19.185663 5.324716 0.000000 0.000000 -16.605470 
-14.870864 8.706073 35.273739 -166.670260 -1.488499 178.839451 12.413382 -3.144644 -22.951631 3.429467 -2.751509 15.985822 0.000000 0.000000 0.000000 8.146468 19.064000 11.016966 -22.803722 -4.773693 -77.684478 -14.855000 -4.360720 6.697430 -50.437500 -14.338100 -2.778015 -180.000000 -49.067001 180.000000 -38.824600 13.671600 -2.879400 14.862600 -3.960560 -3.303790 22.265100 -24.516600 54.638699 0.000000 87.282898 0.000000 5.130480 -24.051300 -23.586000 -9.057983 1.740348 -21.660896 0.000000 0.000000 54.051498 -3.525110 10.718695 6.865673 0.000000 0.000000 -24.862830 23.629897 29.463291 3.823762 0.000000 0.000000 5.245000 5.500390 -18.895017 5.453584 0.000000 0.000000 -16.448430 
